<?xml version="1.0" encoding="utf-8"?>
<!-- Generator: Adobe Illustrator 18.1.0, SVG Export Plug-In . SVG Version: 6.00 Build 0)  -->
<!DOCTYPE svg PUBLIC "-//W3C//DTD SVG 1.1//EN" "http://www.w3.org/Graphics/SVG/1.1/DTD/svg11.dtd">
<svg version="1.1" id="Layer_1" xmlns="http://www.w3.org/2000/svg" xmlns:xlink="http://www.w3.org/1999/xlink" x="0px" y="0px"
	 viewBox="533 303.5 214 293" enable-background="new 533 303.5 214 293" xml:space="preserve">
<circle class="left-eye" cx="617.1" cy="436.5" r="5.2"/>
<circle class="right-eye" cx="675.8" cy="436.5" r="5.2"/>
<polygon class="right-eyebrow" points="689.4,426 662.2,426.8 662.1,422.2 689.4,422.9 "/>
<polygon class="left-eyebrow" points="606.1,427.2 633.3,428.4 633.5,423.8 606.2,424 "/>
<g id="oCnaVl.tif">
	<g>
		<path d="M739.2,461.4c-1.7-23.5-4.3-47-9.1-70.1c-2.9-13.6-6.2-27.1-13-39.5c-2.6-4.7-5.9-9.2-9.7-13c-5.9-5.8-13.4-6.1-20.5-2
			c-1,0.6-2,1.2-3,1.9c-4.5-10.2-9.7-15.2-19.2-16.4c-6.5-0.8-13.3-1.2-19.7,0c-22.8,4.1-42.5,14.2-57.7,32
			c-13,15.1-21.3,32.7-27.6,51.3c-10.6,31.6-15.3,64.3-17.9,97.3c-1.7,22.5-2.5,45.1-3.6,67.6c-0.1,1,0,2,0,3.1
			c0.7-0.1,1-0.2,1.4-0.4c18.1-5.8,36.3-11.7,54.5-17.3c8.6-2.6,13.4-8.5,16.2-16.6c3.5-10.5,4.3-21.3,4.4-32.2c0-0.9,0-1.9,0-3
			c6.5,5.7,12.8,11,18.8,16.5c3.7,3.4,7.5,5.2,12.6,4.5c2.4-0.3,4.9,0.2,7.3-0.1c1.8-0.2,3.9-0.7,5.3-1.9c7-5.7,13.8-11.6,21.2-17.9
			c0,2.3-0.1,4.1,0,6c0.2,9.8,1.2,19.5,4.5,28.8c2.8,7.7,7.4,13.3,15.5,15.8c11.5,3.6,22.9,7.5,34.3,11.2c2.4,0.8,4.8,1.5,7.3,2.3
			c0.1-1.3,0.1-2.2,0.2-3.1C742.4,531.3,741.8,496.3,739.2,461.4z M714.5,443.1c-1.2,3.6-3,7.1-4.8,10.5c-1.1,2-2.8,4.4-5.4,3.7
			c-1.7-0.5-2.8-2.8-4.1-4.3c-0.7,4.7-1.8,9.9-2,15.1c-0.4,9.7-4.6,17.4-10.7,24.5c-9.2,10.8-19.7,20.1-30.8,28.9
			c-0.7,0.6-1.8,0.8-2.8,1c-0.9,0.1-1.9-0.1-2.8,0.1c-8.3,1.5-14.8-1.7-20.5-7.5c-7.5-7.8-15.7-15.2-23.2-23.1
			c-6.4-6.8-9.9-14.9-10.4-24.4c-0.2-4.9-1.2-9.9-2-15.6c-0.7,1.6-1.1,2.5-1.5,3.4c-1.2,2.3-3,2.7-5.2,1.2c-0.5-0.4-1.1-0.8-1.5-1.3
			c-4.9-6-6.8-13-8.2-20.8c6.8,1,12.9,0.3,19.2-1.2c0.5-0.2,1-0.4,1.6-0.6c1.8-0.6,3.6-1.2,5.3-1.9c2-0.7,3.9-1.2,6-1.7
			c2-0.6,3.9-1.4,5.9-2c2.3-1.1,4.4-2.1,6.4-3c0,0,0,0,0-0.1c1.1-1.1,2.4-1.7,3.8-2.2c0.9-0.4,1.8-0.7,2.7-1.1
			c0.6-0.3,1.1-0.7,1.6-0.9l0,0c15-9.1,29.3-19.2,39.3-34.6c0.5,0.7,0.9,1.2,1.3,1.7c7,10.8,16.1,19.3,28.2,24.1
			c1.5,0.6,1.5,1.5,1.5,2.8c-0.1,6.5,0,13,0.4,19.6c0.2-0.6,0.5-1.2,0.8-1.8c2-4.2,3.9-8.5,6.3-12.5c0.7-1.2,3.2-2.5,4.4-2.3
			c1.4,0.4,2.8,2.5,3.3,4.1C718.2,428.5,716.9,436,714.5,443.1z"/>
	</g>
</g>
<path d="M637.8,465.9c0-1.3,0-2.5,0-3.8c6.2,0,12.1,0,18.4,0c0,1.2,0,2.4,0,3.8C650.2,465.9,644.1,465.9,637.8,465.9z"/>
<path d="M624.9,485.8h44c0,0-6.3,12.5-21.1,12.5C633.1,498.4,624.9,485.8,624.9,485.8z"/>
</svg>
