<?xml version="1.0" encoding="utf-8"?>
<!-- Generator: Adobe Illustrator 18.1.0, SVG Export Plug-In . SVG Version: 6.00 Build 0)  -->
<!DOCTYPE svg PUBLIC "-//W3C//DTD SVG 1.1//EN" "http://www.w3.org/Graphics/SVG/1.1/DTD/svg11.dtd">
<svg version="1.1" id="Layer_1" xmlns="http://www.w3.org/2000/svg" xmlns:xlink="http://www.w3.org/1999/xlink" x="0px" y="0px"
	 viewBox="533 303.5 214 293" enable-background="new 533 303.5 214 293" xml:space="preserve">
<circle class="left-eye" cx="617.3" cy="437.3" r="5.2"/>
<circle class="right-eye" cx="676.3" cy="437.3" r="5.2"/>
<polygon class="right-eyebrow" points="689.9,426.8 662.6,427.6 662.5,423 689.9,423.7 "/>
<polygon class="left-eyebrow" points="606.3,428 633.6,429.2 633.8,424.6 606.4,424.8 "/>
<g id="oCnaVl.tif">
	<g>
		<path d="M739.9,462.3c-1.7-23.6-4.3-47.2-9.2-70.4c-2.9-13.7-6.2-27.2-13-39.7c-2.6-4.7-5.9-9.3-9.7-13c-5.9-5.8-13.5-6.1-20.6-2
			c-1,0.6-2,1.2-3,1.9c-4.5-10.2-9.7-15.3-19.3-16.5c-6.5-0.8-13.4-1.2-19.8,0c-22.9,4.1-42.7,14.3-57.9,32.1
			c-13,15.2-21.4,32.8-27.7,51.5c-10.7,31.7-15.4,64.6-18,97.7c-1.7,22.6-2.5,45.3-3.6,67.9c-0.1,1,0,2,0,3.1c0.7-0.1,1-0.2,1.4-0.4
			c18.2-5.8,36.5-11.7,54.7-17.4c8.6-2.6,13.5-8.5,16.3-16.7c3.5-10.6,4.3-21.4,4.4-32.3c0-0.9,0-1.9,0-3
			c6.5,5.7,12.8,11.1,18.9,16.6c3.7,3.4,7.5,5.2,12.7,4.5c2.4-0.3,4.9,0.2,7.3-0.1c1.8-0.2,3.9-0.7,5.3-1.9c7-5.7,13.9-11.6,21.3-18
			c0,2.3-0.1,4.1,0,6c0.2,9.8,1.2,19.6,4.5,28.9c2.8,7.7,7.4,13.4,15.6,15.9c11.5,3.6,23,7.5,34.5,11.2c2.4,0.8,4.8,1.5,7.3,2.3
			c0.1-1.3,0.1-2.2,0.2-3.1C743.1,532.5,742.6,497.4,739.9,462.3z M715.1,444c-1.2,3.6-3,7.1-4.8,10.6c-1.1,2-2.8,4.4-5.4,3.7
			c-1.7-0.5-2.8-2.8-4.1-4.3c-0.7,4.7-1.8,9.9-2,15.2c-0.4,9.7-4.6,17.5-10.8,24.6c-9.3,10.9-19.8,20.2-30.9,29
			c-0.7,0.6-1.8,0.8-2.8,1c-0.9,0.1-1.9-0.1-2.8,0.1c-8.3,1.5-14.9-1.7-20.6-7.5c-7.5-7.8-15.8-15.3-23.3-23.2
			c-6.4-6.8-9.9-15-10.4-24.5c-0.2-4.9-1.2-9.9-2-15.7c-0.7,1.6-1.1,2.5-1.5,3.4c-1.2,2.3-3,2.7-5.2,1.2c-0.5-0.4-1.1-0.8-1.5-1.3
			c-4.9-6-6.8-13-8.2-20.9c6.8,1,12.9,0.3,19.3-1.2c0.5-0.2,1-0.4,1.6-0.6c1.8-0.6,3.6-1.2,5.3-1.9c2-0.7,3.9-1.2,6-1.7
			c2-0.6,3.9-1.4,5.9-2c2.3-1.1,4.4-2.1,6.4-3c0,0,0,0,0-0.1c1.1-1.1,2.4-1.7,3.8-2.2c0.9-0.4,1.8-0.7,2.7-1.1
			c0.6-0.3,1.1-0.7,1.6-0.9l0,0c15.1-9.2,29.4-19.3,39.5-34.8c0.5,0.7,0.9,1.2,1.3,1.7c7,10.9,16.2,19.4,28.3,24.2
			c1.5,0.6,1.5,1.5,1.5,2.8c-0.1,6.5,0,13,0.4,19.7c0.2-0.6,0.5-1.2,0.8-1.8c2-4.2,3.9-8.5,6.3-12.6c0.7-1.2,3.2-2.5,4.4-2.3
			c1.4,0.4,2.8,2.5,3.3,4.1C718.8,429.3,717.5,436.8,715.1,444z"/>
	</g>
</g>
<path d="M638.1,466.8c0-1.3,0-2.5,0-3.8c6.2,0,12.2,0,18.5,0c0,1.2,0,2.4,0,3.8C650.5,466.8,644.4,466.8,638.1,466.8z"/>
<path d="M625.1,486.8h44.2c0,0-6.3,12.6-21.2,12.6C633.4,499.5,625.1,486.8,625.1,486.8z"/>
<path d="M602,555.6c0,0,17.9,19,47.7,19s44.4-19,44.4-19l-3.7-3c0,0-17.1,15.6-41,15.6s-44.2-15.6-44.2-15.6L602,555.6z"/>
</svg>
